<mxfile host="app.diagrams.net" modified="2024-06-03T05:48:36.593Z" agent="Mozilla/5.0 (Macintosh; Intel Mac OS X 10.15; rv:126.0) Gecko/20100101 Firefox/126.0" version="24.4.13" etag="cANX-vZ3MYs5qw5jDwGM" type="github">
  <diagram name="Page-1" id="6he03cmQRC1mE8OoNEiJ">
    <mxGraphModel>
      <root>
        <mxCell id="0" />
        <mxCell id="1" parent="0" />
      </root>
    </mxGraphModel>
  </diagram>
</mxfile>
